<svg width="220" height="90" viewBox="0 0 220 90"><title>404</title><path d="M54.967 6.626v49.732H68.64v12.22H54.967v17.425H40.81V68.58H1V57.81L41.173 6.627h13.794zM17.94 57.81h23.596V27.8L17.94 57.81zM108.57 5.9c4.84 0 9.257.827 13.25 2.48 3.993 1.654 7.401 4.175 10.225 7.563 6.13 7.18 9.196 17.465 9.196 30.856 0 13.39-3.065 23.676-9.196 30.855-5.647 6.695-13.431 10.043-23.354 10.043-10.002 0-17.867-3.348-23.595-10.043-6.05-7.018-9.075-17.303-9.075-30.855 0-13.553 3.025-23.838 9.075-30.856C90.824 9.248 98.648 5.9 108.57 5.9zm13.25 20.147c-3.106-4.8-7.502-7.2-13.189-7.2s-10.083 2.4-13.19 7.2c-3.105 4.8-4.658 11.717-4.658 20.752 0 9.034 1.553 15.911 4.659 20.63 3.106 4.72 7.502 7.079 13.189 7.079s10.083-2.36 13.19-7.079c3.105-4.719 4.658-11.596 4.658-20.63 0-9.035-1.553-15.952-4.659-20.752zm81.737-19.421v49.732h13.673v12.22h-13.673v17.425H189.4V68.58h-39.81V57.81l40.173-51.183h13.794zM166.53 57.81h23.596V27.8L166.53 57.81z"/></svg>