<svg xmlns="http://www.w3.org/2000/svg" viewBox="0 0 314.4 190.4"><path fill="#23B577" d="M95.7 76.2H81.3c-.3 0-.5-.2-.5-.5V74c0-3.7-1.1-6.5-3.4-8.8-2.3-2.2-5.7-3.3-10.2-3.3-4.2 0-7.5.9-9.6 2.8-2.1 1.8-3.1 4-3.1 6.9 0 2.4 1.1 4.4 3.3 6.1 2.6 1.9 7 3.8 13.1 5.6 8.8 2.5 15.6 6 20.2 10.5 2.8 2.7 4.7 5.7 5.9 9.2.1.4.8.4.9 0 .9-3.3 1.4-6.8 1.4-10.5 0-5.7-1.2-11.1-3.3-15.9 0-.3-.1-.4-.3-.4zm-44.1 29.4c.3 0 .5.2.5.5v1.8c0 4.4 1.3 7.5 4.1 9.6 2.9 2.2 6.8 3.3 11.6 3.3 4.3 0 7.7-.9 10-2.6 2.1-1.6 3.2-3.8 3.2-6.6s-1-5-2.9-6.8c-2.2-2-6.2-3.8-12-5.4C57 96.6 49.8 93.2 44.9 89c-3-2.6-5.2-5.7-6.5-9.2-.1-.4-.7-.4-.9 0-1.3 3.9-2 8.1-2 12.5 0 4.5.8 8.9 2.1 12.9.1.2.2.3.4.3h13.6z"/><path fill="#353635" d="M127.2 84.6h-2.3c-.1 0-.2 0-.3.1L105.8 104c-.1.1-.1.2-.1.3v2.8l5-5c.2-.2.5-.2.6 0l13.3 16.7c.1.1.2.2.3.2h2.3c.3 0 .1-.4.1-.4l-14.4-18.3c-.1-.2-.1-.4 0-.5L127.2 85s.4-.4 0-.4zm6.3-8c0-.6.2-1.1.6-1.5.4-.4.9-.6 1.5-.6s1.1.2 1.5.6c.4.4.6.9.6 1.5s-.2 1.1-.6 1.5c-.4.4-.9.6-1.5.6s-1.1-.2-1.5-.6c-.4-.4-.6-.9-.6-1.5zM137 85v33.7c0 .2-.2.4-.4.4H135c-.2 0-.4-.2-.4-.4V85c0-.2.2-.4.4-.4h1.6c.2 0 .4.2.4.4zm10.1 1.8c0-.2.1-.3.3-.4 1.9-.7 3.9-1.2 5.9-1.7 2.1-.5 4.3-.7 6.4-.7 1.5 0 3 .3 4.5.7 1.5.4 2.8 1.1 3.9 2 1.1.9 2 2 2.7 3.3.7 1.3 1 2.8 1 4.6v24.2c0 .2-.2.4-.4.4h-1.6c-.2 0-.4-.2-.4-.4V94.5c0-1.4-.3-2.6-.9-3.6-.6-1-1.3-1.9-2.2-2.5-.9-.7-1.9-1.2-3.1-1.5-1.2-.3-2.3-.5-3.5-.5-1.9 0-3.8.2-5.7.6-1.7.4-3.2.8-4.3 1.3-.2.1-.2.2-.2.4v30c0 .2-.2.4-.4.4h-1.6c-.2 0-.4-.2-.4-.4V86.8zm58.8 30.6c0 .2-.1.3-.3.4-1.9.6-3.9 1-5.9 1.4-2.1.4-4.3.6-6.5.6-1.6 0-3.1-.3-4.5-.7-1.5-.4-2.8-1.1-3.9-2-1.1-.9-2.1-2-2.8-3.3-.7-1.3-1.1-2.8-1.1-4.6V94.5c0-1.7.4-3.3 1.1-4.6.7-1.3 1.6-2.4 2.8-3.3 1.2-.9 2.5-1.6 4-2 1.5-.4 3-.7 4.6-.7 1.6 0 3.3.2 5 .5 1.5.3 3 .8 4.5 1.4.3.1.6-.1.6-.4v-13c0-.2.2-.4.4-.4h1.6c.2 0 .4.2.4.4v45zm-2.4-28.6c0-.2-.1-.3-.3-.4-1.6-.7-3.2-1.2-4.8-1.6-1.7-.4-3.4-.5-5-.5-1.3 0-2.5.2-3.7.5-1.2.3-2.2.8-3.2 1.5-.9.7-1.7 1.5-2.2 2.5-.6 1-.8 2.2-.8 3.6v14.8c0 1.4.3 2.6.8 3.6.6 1 1.3 1.9 2.2 2.6.9.7 2 1.2 3.1 1.5 1.2.3 2.4.5 3.6.5 1.6 0 3.3-.1 5-.3 1.6-.2 3.3-.6 4.9-1.2.2-.1.3-.2.3-.4V88.8zm21.6 30.5c0 .2-.2.4-.4.4-2.8-.2-4.9-1.1-6.4-2.7-1.6-1.7-2.4-4.2-2.4-7.6v-37c0-.2.2-.4.4-.4h1.6c.2 0 .4.2.4.4v37.1c0 2.5.5 4.5 1.6 5.8 1 1.3 2.6 2 4.8 2 .2 0 .4.2.4.4v1.6zm7.3-10.1c0 1.4.3 2.6.8 3.6.6 1 1.3 1.8 2.2 2.5.9.7 2 1.2 3.2 1.5 1.2.3 2.4.5 3.7.5 1.9 0 3.6-.3 5.3-1 1.5-.6 2.7-1.6 3.6-3 .1-.2.3-.2.5-.1l1.5.8c.2.1.3.4.2.6-.5.8-1.1 1.5-1.8 2.2-.8.7-1.7 1.3-2.7 1.8-1 .5-2.1.8-3.2 1-1.1.2-2.2.3-3.4.3-1.6 0-3.1-.2-4.6-.7-1.5-.4-2.8-1.1-4-2-1.2-.9-2.1-2-2.8-3.3-.7-1.3-1.1-2.9-1.1-4.6V94.5c0-1.8.4-3.3 1.1-4.6.7-1.3 1.7-2.4 2.8-3.3 1.2-.9 2.5-1.5 4-2 1.5-.4 3-.7 4.6-.7 1.5 0 3 .2 4.5.7 1.5.4 2.8 1.1 4 2 1.2.9 2.1 2 2.8 3.3.7 1.3 1.1 2.9 1.1 4.6v8.6c0 .2-.2.4-.4.4h-21.6c-.2 0-.4.2-.4.4v5.3zm20-14.9c0-1.4-.3-2.6-.9-3.6-.6-1-1.3-1.8-2.3-2.5-.9-.7-2-1.2-3.2-1.5-1.2-.3-2.4-.5-3.7-.5-1.3 0-2.5.2-3.7.5-1.2.3-2.3.8-3.2 1.5-.9.7-1.7 1.5-2.2 2.5-.6 1-.8 2.2-.8 3.6v6.6c0 .2.2.4.4.4H252c.2 0 .4-.2.4-.4v-6.6zm20.1-10.2c.8-.1 1.5-.2 2.2-.2.6 0 1.2 0 1.8.1.2 0 .4.2.4.4v1.5c0 .2-.2.4-.5.4-.6-.1-1.1-.1-1.7-.1-.7 0-1.4.1-2.1.2-1.9.4-3.5 1.2-4.9 2.5-1.4 1.3-2.1 3.1-2.1 5.4v24.3c0 .2-.2.4-.4.4h-1.6c-.2 0-.4-.2-.4-.4V94.4c0-1.4.2-2.7.7-3.9.5-1.2 1.1-2.2 2-3.1.8-.9 1.8-1.6 2.9-2.2 1.2-.5 2.4-.9 3.7-1.1z"/></svg>