<svg width="118" height="118" viewBox="0 0 118 118"><title>maintenance</title><g stroke="#FFF" fill="#FFF" fill-rule="evenodd" opacity=".361"><path d="M58.459 45.798l7.375-7.373c.573-.561.747-1.415.46-2.164-3.605-9.189-1.815-18.592 4.776-25.17 5.992-5.997 14.65-8.334 22.757-6.347l-10.87 10.854a12.376 12.376 0 0 0-3.656 8.807c0 3.326 1.305 6.444 3.657 8.804 2.363 2.346 5.485 3.651 8.816 3.651a12.4 12.4 0 0 0 8.814-3.65l10.87-10.854a23.994 23.994 0 0 1-6.353 22.727c-6.593 6.58-16.005 8.366-25.208 4.768a2.021 2.021 0 0 0-2.623 1.154 2.025 2.025 0 0 0 1.144 2.62c3.645 1.427 7.313 2.123 10.881 2.123 6.964 0 13.544-2.67 18.68-7.8a28.08 28.08 0 0 0 6.291-30.127 2.014 2.014 0 0 0-1.468-1.24 2.043 2.043 0 0 0-1.852.557L97.72 30.34a8.33 8.33 0 0 1-5.946 2.458 8.362 8.362 0 0 1-5.943-2.458 8.334 8.334 0 0 1-2.463-5.936c0-2.25.87-4.36 2.463-5.935L99.048 5.255c.486-.485.697-1.18.56-1.85a1.998 1.998 0 0 0-1.254-1.466C87.944-2.134 76.106.325 68.196 8.225c-7.461 7.449-9.712 17.931-6.156 28.25l-6.453 6.456a2.02 2.02 0 0 0 0 2.867 2.029 2.029 0 0 0 2.872 0M48.215 80.032L17.884 110.33c-.05.035-3.892 3.738-8.22 2.372a2.036 2.036 0 0 0-2.549 1.327 2.027 2.027 0 0 0 1.318 2.548 10.95 10.95 0 0 0 3.234.496c5.123 0 8.88-3.675 9.079-3.876l30.341-30.3a2.02 2.02 0 0 0 0-2.866 2.052 2.052 0 0 0-2.872 0M44.473 60.704a2.022 2.022 0 0 0 0-2.869 2.05 2.05 0 0 0-2.875 0L3.87 95.51c-.223.236-5.485 5.59-3.37 12.284a2.042 2.042 0 0 0 1.94 1.428c.2 0 .412-.038.61-.1a2.036 2.036 0 0 0 1.331-2.547c-1.367-4.321 2.34-8.156 2.364-8.193l37.728-37.678z"/><path d="M73.598 57.045a2.15 2.15 0 0 0-.796-.486L51.1 49.33 29.304 27.562a2.027 2.027 0 0 0-1.43-.594H14.258L4.582 10.887 9.73 5.745l16.106 9.662v6.22c0 1.12.918 2.023 2.04 2.023 1.119 0 2.026-.902 2.026-2.023v-7.373c0-.708-.374-1.367-.982-1.742L10.463 1.463a2.03 2.03 0 0 0-2.486.295L.591 9.136a2.028 2.028 0 0 0-.3 2.473l11.068 18.427c.374.62 1.032.994 1.741.994h13.928l21.55 21.52c.009.009.021.01.03.02.168.16.367.29.59.388.033.015.065.03.099.043.027.01.049.025.077.034l21.687 7.23 36.573 36.507c.05.05 4.551 4.703 3.184 9.014a2.038 2.038 0 0 0 1.332 2.547c.21.062.411.1.61.1.87 0 1.665-.56 1.94-1.429 2.115-6.693-3.931-12.842-4.191-13.101L73.598 57.045z"/><path d="M104.582 112.44c-4.354 1.366-8.99-3.143-9.028-3.18L58.98 72.74l-3.543-10.604a2.032 2.032 0 0 0-2.56-1.28 2.026 2.026 0 0 0-1.295 2.56l3.695 11.061c.1.3.273.573.497.785l36.909 36.867c.212.212 4.712 4.633 10.184 4.633.957 0 1.94-.137 2.936-.447a2.028 2.028 0 0 0 1.318-2.548 2.03 2.03 0 0 0-2.54-1.326M102.13 105.174c.522 0 1.031-.2 1.43-.596a2.025 2.025 0 0 0 0-2.869L66.65 64.853a2.029 2.029 0 0 0-2.872 0 2.026 2.026 0 0 0 0 2.872l36.909 36.855c.398.394.92.594 1.444.594"/></g></svg>