<svg width="110" height="38" viewBox="0 0 110 38"><title>marsman-template</title><g fill="none" fill-rule="evenodd"><path d="M36.787 32.459c-.377-.002-1.095-.001-1.095-.001V14.237c0-1.832-1.27-3.026-3.135-3.028-1.67-.002-3.37-.001-5.04 0-.117 0-.249-.004-.362.016-.433.073-.716.412-.7.836.016.415.33.818.765.852.095.008.188.087.282.087h4.917c1.039 0 1.236.25 1.236 1.268V32h-2.553c-.03 0-.056-.092-.08-.225-.44-2.375-2.769-4.186-5.185-4.15a.864.864 0 0 0-.852.84c-.013.457.313.817.803.854.137.01.274.027.41.045 1.363.178 2.351.879 2.936 2.106.125.264.187.56.277.832-.08.035-.1.05-.118.05-1.31.005-2.622.006-3.933.014-.192 0-.218-.105-.241-.252-.315-1.984-1.181-3.474-2.971-4.421-.586-.31-1.734-.48-1.734-.731v-.273c0-2.23-.183-4.458-.185-6.687 0-.55-.425-.912-.916-.913-.481 0-.87.369-.88.916-.002.083-.056.166-.056.25v6.764c-3.055.599-4.825 1.98-5.349 4.98H8.767c.032 0 .054-.067.09-.186.45-1.547 1.751-2.427 3.472-2.515.525-.027.884-.331.862-.797-.021-.46-.392-.772-.896-.751-2.067.09-3.64.798-4.614 2.604-.307.568-.464 1.646-.7 1.646H4.117v.14c0-5.957-.072-11.915-.084-17.873-.002-.923.527-1.407 1.389-1.392 1.945.034 3.871.014 5.817.008.56-.001.91-.337.904-.823-.005-.48-.358-.796-.905-.797-2.02-.005-4.142-.016-6.161.002-1.696.016-2.997 1.239-2.997 2.91v18.232s-.822-.006-1.264 0c-.548.01-.815.327-.817.862-.003.885.007 1.77.036 2.655.008.23.131.483.266.679.202.298.553.306.891.306 11.79-.003 23.582-.002 35.37-.002l.192-.001c.547-.018.865-.324.87-.864.009-.906.01-1.812.001-2.718-.005-.556-.275-.862-.839-.865zM2.081 35h33.61v-1H2.082v1zm16.823-6.723C21.551 28.134 23.326 31 23.49 32h-8.662c.094-1 1.628-3.59 4.077-3.723zm.41-20.662c-1.492 0-2.702 1.188-2.702 2.654 0 1.465 1.21 2.654 2.703 2.654 1.493 0 2.703-1.19 2.703-2.654 0-1.466-1.21-2.654-2.703-2.654zm0 3.681c-.578 0-1.046-.46-1.046-1.027 0-.569.468-1.028 1.047-1.028.578 0 1.047.46 1.047 1.027 0 .568-.469 1.028-1.047 1.028z" fill="#E74C3C"/><path d="M23.693 23.052v2.862c0 .125.002.25 0 .375-.013.496-.358.856-.818.854a.886.886 0 0 1-.86-.869c-.01-.948-.003-1.895-.003-2.843v-.39c-.063-.022-.119-.044-.176-.06-.425-.128-.645-.466-.587-.908a.781.781 0 0 1 .783-.68c.961-.013 1.924-.006 2.885-.008h.371c.008-.805.111-1.573-.41-2.273-.462-.619-.843-1.296-1.268-1.942a3.577 3.577 0 0 1-.597-2.036c.009-2.457-.004-4.915.007-7.373.004-.908-.283-1.68-.901-2.36-.972-1.07-1.915-2.164-2.894-3.275-.383.438-.755.861-1.122 1.285-.613.704-1.218 1.414-1.835 2.112a3.07 3.07 0 0 0-.792 2.117c.003 2.5-.004 5 .004 7.498.003.767-.2 1.453-.666 2.072-.422.56-.784 1.167-1.237 1.7-.617.723-.743 1.536-.613 2.475h.319c.983.002 1.967-.006 2.95.008.436.007.74.304.782.713.044.427-.206.77-.639.873-.08.02-.163.035-.265.056 0 1.075.004 2.147-.002 3.218-.002.543-.427.906-.952.828-.406-.06-.681-.39-.683-.847-.005-.948-.001-1.896-.001-2.843v-.38h-.361c-.623 0-1.248.005-1.871-.003-.503-.006-.878-.25-.887-.669-.018-.903-.035-1.814.071-2.707.054-.46.322-.922.582-1.328.454-.713.973-1.386 1.47-2.072.242-.334.354-.698.353-1.11-.003-2.562-.007-5.124.009-7.686.008-1.156.427-2.18 1.18-3.06 1.151-1.344 2.322-2.674 3.489-4.005.427-.487.989-.498 1.419-.014 1.266 1.425 2.537 2.848 3.774 4.298.752.882 1.01 1.947 1.009 3.085-.004 2.458.003 4.916-.005 7.373-.001.475.117.898.382 1.295.442.66.852 1.341 1.295 2 .395.585.557 1.23.566 1.918.008.583.004 1.167.001 1.75-.004.663-.312.968-.995.975-.623.005-1.246.001-1.87.001h-.39zM50.138 9.465l2.539 5.404 2.538-5.404h2.324v9.086h-1.697v-6.902l-2.624 5.908H52.12l-2.709-6.104v7.098H47.73V9.465h2.41zm12.335 5.11c.55 0 1.188.089 1.91.266v-.672c0-.476-.097-.828-.292-1.057-.194-.23-.513-.343-.955-.343-.442 0-.783.086-1.02.259-.237.173-.356.418-.356.735h-1.84c0-.775.278-1.335.834-1.68.557-.345 1.334-.518 2.332-.518 1.426 0 2.347.49 2.766 1.47.143.336.214.733.214 1.19v4.326h-1.469l-.128-.91c-.447.737-1.132 1.106-2.053 1.106-.894 0-1.588-.215-2.082-.644-.457-.411-.685-.931-.685-1.561 0-.63.252-1.115.756-1.456.504-.341 1.193-.511 2.068-.511zm1.91 1.316a6.134 6.134 0 0 0-1.568-.224c-.913 0-1.369.299-1.369.896 0 .252.105.469.314.65.209.183.544.274 1.005.274.461 0 .841-.152 1.14-.455.3-.303.46-.684.478-1.141zm5.818-2.8c.419-.98 1.046-1.47 1.882-1.47.162 0 .366.033.614.098l-.029 1.652a3.8 3.8 0 0 0-.784-.084c-1.122 0-1.683.76-1.683 2.282v2.982H68.52v-6.818H70.2v1.358zm5.19 3.388c.02.644.5.966 1.44.966.362 0 .659-.077.892-.231.233-.154.35-.334.35-.54a.57.57 0 0 0-.215-.475c-.142-.112-.365-.215-.67-.308l-1.511-.532c-1.122-.383-1.683-1.008-1.683-1.876 0-.58.264-1.043.792-1.393.527-.35 1.235-.525 2.124-.525.89 0 1.574.19 2.053.574.48.383.73.863.75 1.442h-1.584a.681.681 0 0 0-.328-.532c-.2-.131-.484-.196-.855-.196-.37 0-.658.072-.863.217-.205.145-.306.31-.306.497 0 .327.28.569.84.728l1.64.602c.543.177.958.404 1.248.679.29.275.435.632.435 1.07 0 .56-.27 1.046-.813 1.457-.56.429-1.302.644-2.224.644-.922 0-1.663-.198-2.224-.595-.562-.397-.847-.954-.856-1.673h1.569zm8.984-7.014l2.538 5.404 2.538-5.404h2.324v9.086H90.08v-6.902l-2.624 5.908h-1.098l-2.71-6.104v7.098h-1.682V9.465h2.41zm12.334 5.11c.551 0 1.189.089 1.91.266v-.672c0-.476-.097-.828-.291-1.057-.195-.23-.514-.343-.956-.343-.442 0-.782.086-1.02.259-.237.173-.356.418-.356.735h-1.84c0-.775.279-1.335.835-1.68.556-.345 1.333-.518 2.331-.518 1.426 0 2.348.49 2.767 1.47.142.336.213.733.213 1.19v4.326h-1.468l-.129-.91c-.447.737-1.131 1.106-2.053 1.106-.893 0-1.588-.215-2.082-.644-.456-.411-.684-.931-.684-1.561 0-.63.251-1.115.756-1.456.504-.341 1.192-.511 2.067-.511zm1.91 1.316a6.134 6.134 0 0 0-1.568-.224c-.912 0-1.369.299-1.369.896 0 .252.105.469.314.65.209.183.544.274 1.005.274.462 0 .842-.152 1.141-.455.3-.303.459-.684.478-1.141zm5.79-2.968c.456-.905 1.189-1.358 2.196-1.358.856 0 1.5.275 1.932.826.433.55.649 1.279.649 2.184v3.976h-1.683v-3.976c0-.504-.123-.884-.37-1.141-.248-.257-.594-.385-1.041-.385-.447 0-.83.196-1.148.588-.319.392-.487.98-.506 1.764v3.15h-1.683v-6.804h1.469l.185 1.176z" fill="#E74C3C"/><path d="M46.488 21.465h7.415v1.428h-2.866v7.658h-1.683v-7.658h-2.866v-1.428zm14.195 4.13c.12.392.178.75.178 1.078 0 .327-.019.62-.057.882h-4.477c.02.55.157.999.413 1.344.257.345.647.518 1.17.518.693 0 1.107-.3 1.24-.896h1.697c-.114.68-.433 1.218-.955 1.61-.542.41-1.203.616-1.982.616-.913 0-1.678-.327-2.296-.98-.637-.681-.955-1.554-.955-2.618 0-1.092.318-1.97.955-2.632.608-.635 1.374-.952 2.296-.952.96 0 1.706.33 2.238.994.238.299.416.644.535 1.036zm-2.759-.714c-.476 0-.846.152-1.112.455-.266.303-.423.693-.47 1.169h2.95c0-.737-.236-1.232-.712-1.484-.18-.093-.4-.14-.656-.14zm11.108.154c.447-.98 1.231-1.47 2.353-1.47.827 0 1.468.275 1.925.826.437.523.656 1.25.656 2.184v3.976h-1.697v-3.976c0-.504-.123-.884-.371-1.141-.247-.257-.594-.385-1.04-.385-.448 0-.814.19-1.099.574-.285.383-.437.96-.456 1.736v3.192H67.62v-3.976c0-.504-.123-.884-.37-1.141-.248-.257-.594-.385-1.041-.385-.448 0-.83.196-1.148.588-.32.392-.487.98-.506 1.764v3.15h-1.683v-6.804h1.469l.185 1.176c.456-.905 1.189-1.358 2.196-1.358.58 0 1.062.13 1.447.392.385.26.672.62.863 1.078zm8.912-.364c.437-.737 1.103-1.106 1.996-1.106.856 0 1.588.317 2.196.952.647.672.97 1.549.97 2.632 0 1.092-.328 1.974-.984 2.646-.608.635-1.335.952-2.182.952-.846 0-1.463-.247-1.853-.742v3.864h-1.683V23.747h1.383l.157.924zm1.697 4.578a1.693 1.693 0 0 0 1.198-.518c.38-.392.57-.917.57-1.575 0-.658-.164-1.174-.492-1.547-.328-.373-.727-.56-1.198-.56-.47 0-.855.133-1.155.399-.3.266-.458.646-.477 1.14v1.219c0 .439.156.793.47 1.064.294.252.656.378 1.084.378zm5.461 1.302h1.683v-9.604h-1.683v9.604zm6.616-3.976c.551 0 1.189.089 1.911.266v-.672c0-.476-.098-.828-.292-1.057-.195-.23-.514-.343-.956-.343-.442 0-.782.086-1.02.259-.236.173-.356.418-.356.735h-1.839c0-.775.278-1.335.834-1.68.556-.345 1.333-.518 2.332-.518 1.425 0 2.347.49 2.766 1.47.142.336.214.733.214 1.19v4.326h-1.469l-.128-.91c-.447.737-1.132 1.106-2.054 1.106-.893 0-1.588-.215-2.081-.644-.457-.411-.685-.931-.685-1.561 0-.63.252-1.115.756-1.456.504-.341 1.193-.511 2.067-.511zm1.911 1.316a6.134 6.134 0 0 0-1.568-.224c-.913 0-1.37.299-1.37.896 0 .252.106.469.314.65.21.183.544.274 1.006.274.461 0 .841-.152 1.14-.455.3-.303.459-.684.478-1.141zm8.042 2.492c-.627.243-1.121.364-1.483.364a3.21 3.21 0 0 1-.948-.126 2.154 2.154 0 0 1-.72-.378c-.437-.383-.656-.91-.656-1.582v-3.808h-.97v-1.106h.97v-1.792h1.683v1.792h1.882v1.106h-1.882v3.752c0 .56.27.84.813.84.276 0 .632-.075 1.069-.224l.242 1.162zm7.094-4.788c.12.392.179.75.179 1.078 0 .327-.02.62-.057.882h-4.478c.02.55.157.999.414 1.344.256.345.646.518 1.169.518.694 0 1.107-.3 1.24-.896h1.697c-.114.68-.433 1.218-.955 1.61-.542.41-1.203.616-1.982.616-.913 0-1.678-.327-2.296-.98-.636-.681-.955-1.554-.955-2.618 0-1.092.319-1.97.955-2.632.608-.635 1.374-.952 2.296-.952.96 0 1.706.33 2.239.994.237.299.415.644.534 1.036zm-2.759-.714c-.475 0-.846.152-1.112.455-.266.303-.423.693-.47 1.169h2.951c0-.737-.237-1.232-.713-1.484-.18-.093-.4-.14-.656-.14z" fill="#969696"/></g></svg>