<svg width="120" height="40" viewBox="0 0 120 40" xmlns="http://www.w3.org/2000/svg"><desc>Created with Sketch.</desc><g fill="none"><g fill="#E74C3C"><path d="M29.02 33.393c-.16-1.8-1.904-3.866-4.502-3.722-2.405.134-3.91 2.165-4.003 3.723h8.504zm-27.212 1.87h33.56v-1.17H1.807v1.17zm6.756-2.874h4.184c.515-2.992 2.252-4.772 5.27-5.372v-6.763c0-.083-.002-.166 0-.25.01-.546.338-.916.81-.915.482 0 .808.362.808.91.002 2.23 0 4.46 0 6.688v.274c.66.25 1.31.42 1.885.73 1.758.948 2.79 2.438 3.1 4.422.022.148.047.254.236.253 1.287-.008 2.574-.008 3.86-.012.02 0 .038-.016.117-.05-.088-.273-.15-.565-.272-.83-.573-1.226-1.543-1.92-2.88-2.1-.134-.017-.27-.022-.404-.032-.48-.037-.8-.374-.79-.83.013-.448.368-.784.838-.79 2.372-.038 4.658 1.87 5.09 4.245.024.133.05.265.08.418h2.733V14.268c0-1.018-.42-1.435-1.44-1.435h-4.828c-.094 0-.188.004-.28-.003-.43-.035-.74-.355-.756-.77-.016-.423.256-.762.68-.836.11-.02.227-.015.34-.015 1.642-.002 3.282-.003 4.922 0 1.83 0 3.022 1.195 3.022 3.027V32.457c.39 0 .76 0 1.13.002.556.002.876.308.88.864.01.906.01 1.812 0 2.718-.004.54-.317.846-.853.863-.062.003-.124 0-.187 0-11.574 0-23.15 0-34.724.003-.33 0-.67-.007-.87-.305-.13-.196-.24-.448-.247-.68-.028-.884-.013-1.77-.01-2.655 0-.534.312-.85.85-.86.434-.008.868-.002 1.34-.002v-18.23c0-1.672 1.176-2.895 2.84-2.91 1.984-.02 3.966-.008 5.95-.004.537 0 .878.32.884.797.007.485-.346.822-.896.823-1.91.006-3.82.026-5.73-.008-.847-.015-1.405.47-1.403 1.392.013 5.957.007 11.915.007 17.873v.298H6.81c.232-.64.387-1.285.688-1.853.958-1.806 2.5-2.72 4.53-2.81.495-.022.86.315.88.775.022.466-.33.818-.845.845-1.69.088-2.968 1.065-3.41 2.612-.035.12-.057.24-.09.382z"/><path d="M29.22 24.052v2.862c0 .125.002.25 0 .375-.014.495-.352.855-.803.854-.447-.002-.84-.393-.846-.87-.008-.947-.002-1.895-.002-2.843v-.39c-.06-.02-.115-.042-.17-.06-.42-.126-.635-.464-.58-.907.05-.38.36-.674.77-.68.944-.013 1.89-.006 2.834-.007h.363c.008-.806.11-1.574-.403-2.273-.453-.62-.826-1.297-1.244-1.943-.402-.62-.59-1.293-.587-2.035.01-2.458-.003-4.916.008-7.374.004-.907-.278-1.68-.885-2.36-.954-1.068-1.88-2.163-2.84-3.273L23.73 4.41c-.6.705-1.194 1.415-1.8 2.113-.53.61-.78 1.313-.778 2.117.002 2.5-.005 5 .003 7.5.003.765-.196 1.45-.654 2.07-.413.56-.767 1.168-1.213 1.7-.606.723-.73 1.536-.602 2.476h.313c.965 0 1.93-.006 2.896.008.43.006.728.303.77.712.042.427-.204.77-.628.874-.08.02-.16.034-.26.055 0 1.075.003 2.147-.002 3.22-.003.542-.42.904-.936.827-.4-.06-.668-.392-.67-.848-.005-.947-.002-1.895-.002-2.843v-.38h-.354c-.612 0-1.225.006-1.837 0-.494-.007-.862-.252-.87-.67-.018-.904-.034-1.814.07-2.708.053-.46.316-.92.57-1.328.446-.713.956-1.386 1.444-2.072.236-.334.346-.697.346-1.11-.004-2.562-.008-5.124.008-7.686.008-1.155.42-2.18 1.16-3.06 1.13-1.344 2.278-2.674 3.424-4.005.42-.486.97-.497 1.393-.013 1.245 1.426 2.492 2.848 3.707 4.3.738.88.992 1.946.99 3.083-.003 2.458.003 4.916-.005 7.374 0 .475.115.897.376 1.294.433.66.836 1.34 1.272 2 .387.585.547 1.23.555 1.92.007.582.004 1.165 0 1.748-.003.664-.306.97-.975.975-.613.007-1.225.002-1.838.002h-.383"/><path d="M23.893 11.274c.003.58.453 1.03 1.03 1.026.558-.003 1.028-.48 1.025-1.042-.003-.577-.454-1.02-1.037-1.017-.58.002-1.02.45-1.017 1.034m1.04 2.648c-1.437.016-2.644-1.174-2.66-2.622-.015-1.466 1.16-2.667 2.627-2.685 1.45-.018 2.66 1.185 2.667 2.647.006 1.427-1.2 2.645-2.633 2.66"/></g><path d="M55.668 9.914l2.492 5.404 2.492-5.404h2.282V19h-1.666v-6.902l-2.576 5.908h-1.078l-2.66-6.104V19h-1.652V9.914h2.366zm12.11 5.11c.54 0 1.167.09 1.876.266v-.672c0-.476-.096-.828-.287-1.057-.19-.228-.504-.342-.938-.342-.435 0-.77.086-1.002.26-.233.172-.35.417-.35.734h-1.806c0-.775.273-1.335.82-1.68.545-.345 1.308-.518 2.288-.518 1.4 0 2.305.49 2.716 1.47.14.336.21.733.21 1.19V19h-1.442l-.126-.91c-.44.737-1.11 1.106-2.016 1.106-.877 0-1.56-.215-2.044-.644-.448-.41-.672-.93-.672-1.56s.247-1.116.742-1.457c.495-.34 1.17-.51 2.03-.51zm1.876 1.316c-.55-.15-1.064-.224-1.54-.224-.896 0-1.344.3-1.344.896 0 .252.103.47.308.65.205.183.534.274.987.274.453 0 .826-.152 1.12-.455.294-.302.45-.683.47-1.14zm5.712-2.8c.41-.98 1.027-1.47 1.848-1.47.16 0 .36.033.602.098l-.028 1.652c-.26-.056-.518-.084-.77-.084-1.1 0-1.652.76-1.652 2.282V19h-1.652v-6.818h1.652v1.358zm5.096 3.388c.02.644.49.966 1.414.966.355 0 .646-.077.875-.23.23-.155.344-.335.344-.54 0-.205-.07-.364-.21-.476-.14-.112-.36-.215-.658-.308l-1.484-.532c-1.1-.383-1.652-1.008-1.652-1.876 0-.58.26-1.043.777-1.393.518-.35 1.213-.526 2.086-.526.873 0 1.545.19 2.016.574.47.383.715.863.734 1.442H83.15c-.02-.224-.126-.4-.322-.532-.196-.13-.476-.196-.84-.196s-.646.072-.847.217c-.2.144-.3.31-.3.496 0 .327.275.57.826.728l1.61.602c.532.177.94.404 1.225.68.286.274.428.63.428 1.07 0 .56-.266 1.045-.798 1.456-.55.43-1.28.644-2.184.644-.905 0-1.633-.198-2.184-.595-.55-.396-.83-.953-.84-1.672h1.54zm8.82-7.014l2.492 5.404 2.492-5.404h2.282V19h-1.666v-6.902l-2.576 5.908h-1.078l-2.66-6.104V19h-1.652V9.914h2.366zm12.11 5.11c.54 0 1.167.09 1.876.266v-.672c0-.476-.096-.828-.287-1.057-.19-.228-.503-.342-.937-.342-.434 0-.768.086-1 .26-.234.172-.35.417-.35.734h-1.807c0-.775.273-1.335.82-1.68.545-.345 1.308-.518 2.288-.518 1.4 0 2.305.49 2.716 1.47.14.336.21.733.21 1.19V19h-1.442l-.126-.91c-.44.737-1.11 1.106-2.016 1.106-.877 0-1.56-.215-2.044-.644-.448-.41-.672-.93-.672-1.56s.247-1.116.742-1.457c.495-.34 1.17-.51 2.03-.51zm1.876 1.316c-.55-.15-1.064-.224-1.54-.224-.896 0-1.344.3-1.344.896 0 .252.103.47.308.65.205.183.534.274.987.274.452 0 .825-.152 1.12-.455.293-.302.45-.683.468-1.14zm5.684-2.968c.448-.905 1.167-1.358 2.156-1.358.84 0 1.472.275 1.897.826.425.55.637 1.28.637 2.184V19h-1.652v-3.976c0-.504-.12-.884-.364-1.14-.243-.258-.583-.386-1.022-.386-.44 0-.814.196-1.127.588-.313.392-.478.98-.497 1.764V19h-1.652v-6.804h1.442l.182 1.176z" fill="#E74C3C"/><path d="M52.084 21.914h7.28v1.428H56.55V31h-1.652v-7.658h-2.814v-1.428zm13.937 4.13c.118.392.176.75.176 1.078 0 .327-.02.62-.056.882h-4.396c.02.55.154 1 .406 1.344.252.345.635.518 1.148.518.68 0 1.087-.3 1.218-.896h1.666c-.112.68-.425 1.218-.938 1.61-.532.41-1.18.616-1.946.616-.896 0-1.647-.327-2.254-.98-.625-.68-.938-1.554-.938-2.618 0-1.092.313-1.97.938-2.632.597-.635 1.35-.952 2.254-.952.943 0 1.675.33 2.198.994.233.3.408.644.525 1.036zm-2.708-.714c-.467 0-.83.152-1.092.455-.26.303-.415.693-.462 1.17h2.898c0-.738-.233-1.233-.7-1.485-.177-.093-.392-.14-.644-.14zm10.906.154c.44-.98 1.21-1.47 2.31-1.47.812 0 1.442.275 1.89.826.43.523.644 1.25.644 2.184V31h-1.666v-3.976c0-.504-.12-.884-.364-1.14-.243-.258-.583-.386-1.022-.386-.44 0-.798.19-1.078.574-.28.383-.43.96-.448 1.736V31h-1.652v-3.976c0-.504-.12-.884-.364-1.14-.243-.258-.583-.386-1.022-.386-.44 0-.814.196-1.127.588-.314.392-.48.98-.498 1.764V31H68.17v-6.804h1.442l.182 1.176c.448-.905 1.167-1.358 2.156-1.358.57 0 1.043.13 1.42.392.38.26.66.62.848 1.078zm8.75-.364c.43-.737 1.083-1.106 1.96-1.106.84 0 1.56.317 2.156.952.635.672.952 1.55.952 2.632 0 1.092-.322 1.974-.966 2.646-.597.635-1.31.952-2.142.952-.83 0-1.437-.247-1.82-.742v3.864h-1.652V24.196h1.358l.154.924zm1.666 4.578c.196 0 .4-.042.61-.126.21-.084.398-.215.566-.392.373-.392.56-.917.56-1.575 0-.658-.16-1.174-.483-1.547-.322-.373-.714-.56-1.176-.56-.46 0-.84.133-1.133.4-.294.265-.45.645-.47 1.14v1.218c0 .44.155.793.463 1.064.29.252.644.378 1.064.378zm5.362-8.302h1.652V31h-1.652v-9.604zm6.496 5.628c.54 0 1.167.09 1.876.266v-.672c0-.476-.096-.828-.287-1.057-.19-.228-.503-.342-.937-.342-.434 0-.768.086-1 .26-.234.172-.35.417-.35.734h-1.807c0-.775.273-1.335.82-1.68.545-.345 1.308-.518 2.288-.518 1.4 0 2.305.49 2.716 1.47.14.336.21.733.21 1.19V31h-1.442l-.126-.91c-.44.737-1.11 1.106-2.016 1.106-.877 0-1.56-.215-2.044-.644-.448-.41-.672-.93-.672-1.56s.247-1.116.742-1.457c.495-.34 1.17-.51 2.03-.51zm1.876 1.316c-.55-.15-1.064-.224-1.54-.224-.896 0-1.344.3-1.344.896 0 .252.103.47.308.65.205.183.534.274.987.274.452 0 .825-.152 1.12-.455.293-.302.45-.683.468-1.14zm7.896 2.492c-.616.243-1.1.364-1.456.364-.355 0-.665-.042-.93-.126-.267-.084-.503-.21-.708-.378-.43-.383-.644-.91-.644-1.582v-3.808h-.952v-1.106h.952v-1.792h1.652v1.792h1.848v1.106h-1.848v3.752c0 .56.266.84.798.84.27 0 .62-.075 1.05-.224l.238 1.162zm6.965-4.788c.116.392.174.75.174 1.078 0 .327-.02.62-.056.882h-4.396c.02.55.154 1 .406 1.344.252.345.635.518 1.148.518.68 0 1.087-.3 1.218-.896h1.666c-.112.68-.425 1.218-.938 1.61-.532.41-1.18.616-1.946.616-.896 0-1.647-.327-2.254-.98-.625-.68-.938-1.554-.938-2.618 0-1.092.313-1.97.938-2.632.597-.635 1.35-.952 2.254-.952.943 0 1.675.33 2.198.994.233.3.408.644.525 1.036zm-2.71-.714c-.467 0-.83.152-1.092.455-.26.303-.415.693-.462 1.17h2.898c0-.738-.233-1.233-.7-1.485-.177-.093-.392-.14-.644-.14z" fill="#969696"/></g></svg>