<svg width="110" height="38" viewBox="0 0 110 38"><title>marsman-template-negative</title><g fill="#FFF" fill-rule="evenodd"><path d="M23.23 33.269c-.162-1.85-1.92-3.97-4.542-3.823-2.427.137-3.947 2.222-4.04 3.823h8.582zM1.825 36.215h33.867v-1.202H1.825v1.202zm6.818-2.95h4.222c.52-3.073 2.272-4.901 5.318-5.516v-7.204c.01-.561.341-.94.818-.94.486 0 .815.372.816.937.002 2.29 0 4.578 0 6.868v.28c.665.258 1.321.433 1.901.751 1.773.973 2.815 2.504 3.127 4.54.024.152.049.261.24.26 1.298-.008 2.597-.008 3.896-.012.018 0 .037-.016.117-.052-.089-.279-.15-.58-.275-.85-.58-1.26-1.558-1.975-2.908-2.158-.135-.018-.271-.023-.407-.033-.486-.038-.808-.384-.796-.852.012-.46.37-.806.844-.813 2.394-.038 4.701 1.921 5.137 4.36.024.137.051.273.08.43h2.758V14.654c0-1.046-.424-1.474-1.453-1.474h-4.871c-.095 0-.19.004-.283-.004a.81.81 0 0 1-.763-.789.815.815 0 0 1 .687-.86c.112-.02.23-.015.345-.015 1.655-.001 3.31-.002 4.965 0 1.849.002 3.05 1.228 3.05 3.11v18.713c.395 0 .768-.002 1.142 0 .56.005.882.318.888.89.008.93.008 1.86 0 2.791-.005.555-.321.869-.862.887-.063.002-.126 0-.189 0-11.68 0-23.361 0-35.042.003-.335 0-.676-.008-.878-.314-.132-.201-.242-.46-.25-.697-.028-.909-.013-1.819-.01-2.728.001-.549.315-.874.858-.883.438-.008.876-.002 1.351-.002V14.558c0-1.716 1.188-2.972 2.868-2.988 2.001-.02 4.002-.008 6.003-.003.543 0 .887.327.893.818.006.5-.35.845-.906.846-1.927.006-3.855.026-5.782-.008-.855-.016-1.418.481-1.416 1.43.013 6.118.007 12.237.007 18.356v.306h2.99c.234-.657.39-1.32.694-1.904.966-1.854 2.524-2.794 4.571-2.886.5-.022.868.324.889.796.021.479-.335.841-.854.869-1.705.09-2.994 1.094-3.442 2.682-.034.122-.056.248-.088.393z"/><path d="M23.432 23.675v2.94c0 .128.003.256 0 .385-.013.51-.355.879-.81.877-.45-.002-.848-.403-.853-.892-.01-.974-.003-1.947-.003-2.92v-.402c-.061-.022-.117-.044-.173-.061-.422-.13-.64-.478-.583-.932a.785.785 0 0 1 .776-.698c.953-.014 1.906-.007 2.86-.009h.367c.008-.827.11-1.615-.407-2.334-.457-.636-.834-1.332-1.256-1.995a3.764 3.764 0 0 1-.592-2.09c.01-2.524-.004-5.049.007-7.573.004-.932-.28-1.726-.893-2.424-.963-1.098-1.897-2.223-2.867-3.363-.38.45-.747.884-1.113 1.32-.606.722-1.205 1.451-1.817 2.168-.534.626-.785 1.35-.784 2.174.002 2.568-.005 5.135.003 7.702.003.787-.198 1.492-.66 2.127-.417.575-.775 1.2-1.225 1.745-.612.744-.737 1.579-.607 2.543h.315c.975.002 1.949-.005 2.923.009.433.006.734.311.776.731a.805.805 0 0 1-.633.898c-.08.02-.162.035-.263.057 0 1.104.004 2.204-.002 3.305-.002.558-.424.93-.944.85-.402-.06-.674-.402-.677-.87-.004-.973-.001-1.946-.001-2.92v-.39h-.357c-.618 0-1.236.005-1.854-.003-.499-.006-.87-.257-.878-.687-.019-.927-.035-1.863.07-2.78.054-.473.32-.947.576-1.364.45-.733.964-1.424 1.457-2.128.24-.343.35-.717.35-1.14-.003-2.631-.008-5.263.009-7.894.007-1.187.423-2.24 1.169-3.142 1.14-1.381 2.3-2.747 3.457-4.114.423-.5.979-.511 1.405-.014 1.255 1.464 2.514 2.925 3.74 4.414.745.906 1 2 1 3.168-.004 2.525.002 5.049-.005 7.573-.002.488.115.922.378 1.33.437.678.844 1.377 1.284 2.053.39.602.552 1.263.56 1.971.008.599.004 1.198.001 1.797-.003.681-.31.994-.985 1.001-.618.006-1.236.001-1.854.001h-.387"/><path d="M18.057 10.552c.003.596.457 1.056 1.04 1.053.563-.002 1.037-.493 1.034-1.07a1.03 1.03 0 0 0-1.047-1.045c-.584.002-1.03.462-1.027 1.062m1.05 2.72c-1.45.015-2.668-1.207-2.684-2.694-.016-1.505 1.17-2.738 2.65-2.757 1.463-.019 2.686 1.217 2.692 2.718.006 1.465-1.211 2.717-2.657 2.733m31.016-4.117l2.515 5.55 2.514-5.55h2.303v9.331h-1.681v-7.088l-2.6 6.068h-1.087l-2.685-6.27v7.29h-1.667V9.155h2.388zm12.22 5.248c.547 0 1.178.091 1.894.273v-.69c0-.489-.097-.85-.29-1.086-.193-.234-.508-.352-.946-.352-.438 0-.775.089-1.01.266-.236.178-.354.43-.354.755h-1.822c0-.796.275-1.37.826-1.725.551-.355 1.321-.532 2.31-.532 1.413 0 2.327.503 2.741 1.51.141.344.212.752.212 1.222v4.442H64.45l-.127-.934c-.443.757-1.121 1.136-2.035 1.136-.885 0-1.573-.22-2.062-.662-.453-.421-.679-.956-.679-1.603s.25-1.145.75-1.495c.498-.35 1.181-.525 2.048-.525zm1.894 1.352a5.862 5.862 0 0 0-1.554-.23c-.904 0-1.356.306-1.356.92a.87.87 0 0 0 .31.668c.208.187.54.28.996.28.457 0 .834-.155 1.13-.467.297-.311.455-.702.474-1.171zm5.764-2.876c.415-1.007 1.036-1.51 1.865-1.51.16 0 .363.034.608.1l-.028 1.697a3.64 3.64 0 0 0-.777-.086c-1.112 0-1.668.781-1.668 2.344v3.062h-1.667v-7.002h1.667v1.395zm5.143 3.48c.019.66.495.992 1.427.992.358 0 .652-.08.883-.238.23-.158.346-.342.346-.553 0-.211-.07-.374-.212-.49-.14-.114-.362-.22-.664-.315l-1.497-.547c-1.112-.393-1.667-1.035-1.667-1.926 0-.595.26-1.072.784-1.431.522-.36 1.224-.54 2.105-.54.88 0 1.559.197 2.034.59.476.393.723.887.742 1.481h-1.568a.702.702 0 0 0-.325-.546c-.198-.134-.48-.202-.848-.202-.367 0-.652.075-.855.223-.202.149-.303.32-.303.51 0 .336.277.586.833.748l1.625.619c.537.182.949.414 1.236.697.287.283.431.65.431 1.1 0 .575-.268 1.074-.805 1.495-.556.441-1.29.662-2.204.662-.914 0-1.649-.204-2.204-.611-.556-.408-.839-.98-.848-1.719h1.554zm8.901-7.204l2.515 5.55 2.515-5.55h2.303v9.331h-1.682v-7.088l-2.6 6.068H86.01l-2.684-6.27v7.29h-1.668V9.155h2.388zm12.221 5.248c.546 0 1.178.091 1.893.273v-.69c0-.489-.096-.85-.29-1.086-.192-.234-.508-.352-.946-.352-.438 0-.775.089-1.01.266-.236.178-.353.43-.353.755h-1.823c0-.796.276-1.37.827-1.725.55-.355 1.32-.532 2.31-.532 1.413 0 2.326.503 2.74 1.51.142.344.213.752.213 1.222v4.442h-1.456l-.127-.934c-.443.757-1.12 1.136-2.034 1.136-.886 0-1.573-.22-2.063-.662-.452-.421-.678-.956-.678-1.603s.25-1.145.749-1.495c.499-.35 1.182-.525 2.048-.525zm1.893 1.352a5.862 5.862 0 0 0-1.554-.23c-.904 0-1.356.306-1.356.92 0 .259.104.481.31.668.208.187.54.28.997.28.457 0 .833-.155 1.13-.467.297-.311.455-.702.473-1.171zm5.737-3.049c.452-.93 1.177-1.394 2.175-1.394.848 0 1.486.282 1.915.848.428.566.643 1.313.643 2.243v4.083h-1.668v-4.083c0-.518-.122-.908-.367-1.172-.245-.263-.589-.395-1.031-.395-.443 0-.822.201-1.138.604-.315.402-.482 1.006-.501 1.811v3.235h-1.667V11.5h1.455l.184 1.207z"/><path d="M46.507 21.48h7.347v1.466h-2.84v7.865h-1.667v-7.865h-2.84v-1.467zm14.065 4.24c.117.403.176.773.176 1.108 0 .335-.019.637-.056.906h-4.437c.02.565.156 1.025.41 1.38s.64.532 1.159.532c.687 0 1.097-.307 1.229-.92h1.681c-.113.7-.428 1.25-.946 1.653-.537.422-1.192.633-1.964.633-.905 0-1.663-.335-2.275-1.006-.631-.7-.947-1.596-.947-2.69 0-1.12.316-2.022.947-2.702.603-.652 1.361-.978 2.275-.978.951 0 1.69.34 2.218 1.02.235.308.412.662.53 1.065zm-2.734-.732c-.471 0-.838.155-1.102.467-.264.311-.42.712-.466 1.2h2.924c0-.757-.235-1.265-.706-1.524a1.36 1.36 0 0 0-.65-.143zm11.006.158c.443-1.007 1.22-1.51 2.331-1.51.82 0 1.455.283 1.907.848.434.537.65 1.285.65 2.243v4.084h-1.681v-4.084c0-.517-.122-.908-.367-1.171-.245-.264-.589-.396-1.032-.396-.442 0-.805.197-1.088.59-.282.393-.433.987-.452 1.783v3.278h-1.667v-4.084c0-.517-.122-.908-.367-1.171-.245-.264-.589-.396-1.032-.396-.442 0-.821.201-1.137.604-.315.403-.483 1.006-.501 1.812v3.235H62.74v-6.988h1.456l.183 1.208c.452-.93 1.178-1.395 2.176-1.395.575 0 1.053.134 1.434.403.382.268.666.637.855 1.107zm8.83-.374c.433-.757 1.093-1.136 1.978-1.136.848 0 1.573.326 2.176.978.64.69.96 1.59.96 2.703 0 1.121-.324 2.027-.974 2.717-.603.652-1.324.978-2.162.978-.838 0-1.45-.254-1.837-.762v3.968h-1.667V23.823h1.37l.156.949zm1.681 4.702c.198 0 .403-.044.615-.13.212-.086.403-.22.572-.402.377-.403.565-.942.565-1.618 0-.676-.162-1.205-.487-1.589-.325-.383-.72-.575-1.187-.575-.466 0-.848.137-1.144.41-.297.273-.455.664-.474 1.172v1.25c0 .451.156.815.467 1.093.292.26.65.389 1.073.389zm5.412-8.527h1.667v9.864h-1.667v-9.864zm6.555 5.78c.547 0 1.178.091 1.893.274v-.69c0-.49-.096-.851-.29-1.086-.192-.235-.508-.352-.946-.352-.438 0-.775.088-1.01.266-.235.177-.353.428-.353.754h-1.823c0-.795.276-1.37.827-1.725.55-.355 1.32-.532 2.31-.532 1.413 0 2.326.503 2.74 1.51.142.345.213.752.213 1.222v4.443h-1.456l-.127-.935c-.443.757-1.12 1.136-2.034 1.136-.886 0-1.573-.22-2.063-.661-.452-.422-.678-.956-.678-1.603 0-.648.25-1.146.749-1.496.499-.35 1.182-.525 2.048-.525zm1.893 1.352a5.862 5.862 0 0 0-1.554-.23c-.904 0-1.356.307-1.356.92 0 .259.104.482.31.669.208.187.54.28.997.28.457 0 .833-.156 1.13-.467.297-.312.455-.702.473-1.172zm7.969 2.56c-.622.248-1.112.373-1.47.373-.357 0-.67-.043-.939-.13a2.113 2.113 0 0 1-.714-.388c-.433-.393-.65-.934-.65-1.624v-3.911h-.96v-1.136h.96v-1.84h1.668v1.84h1.865v1.136h-1.865v3.853c0 .575.268.863.805.863.273 0 .626-.077 1.06-.23l.24 1.193zm7.029-4.918c.117.402.176.772.176 1.107 0 .335-.018.637-.056.906h-4.436c.018.565.155 1.025.41 1.38.254.355.64.532 1.158.532.687 0 1.097-.307 1.229-.92h1.681c-.113.7-.428 1.25-.946 1.653-.537.422-1.192.633-1.964.633-.904 0-1.663-.335-2.275-1.006-.631-.7-.947-1.596-.947-2.69 0-1.12.316-2.022.947-2.702.603-.652 1.361-.978 2.275-.978.951 0 1.69.34 2.218 1.02.235.308.412.662.53 1.065zm-2.734-.733c-.471 0-.838.155-1.102.467-.264.311-.42.712-.466 1.2h2.924c0-.757-.235-1.265-.706-1.524a1.36 1.36 0 0 0-.65-.143z" opacity=".768"/></g></svg>