<svg id="Capa_1" data-name="Capa 1" xmlns="http://www.w3.org/2000/svg" viewBox="0 0 248.42 256"><defs><style>.cls-1{fill:#cdcccc;}</style></defs><title>cookies-icon</title><path class="cls-1" d="M248.84,94.7c-9.36-5.07-14.2-12.66-14-23.5,0.22-11.36-.28-11.81-11.22-15.66s-18-11.32-21.62-22.07c-3.48-10.36-4.36-11.16-15.1-11.4-10.09-.22-17.76-4.35-23.05-13.36-2-3.47-6-5.84-9-8.72h-2C148,2.25,143,4.17,138.39,6.82c-30.59,17.6-45.6,50.95-40,84.93,6.23,38,41.92,69.23,81.8,67.69,34.59-1.35,58.94-17.76,73.92-48.57C257.81,103.17,256.14,98.65,248.84,94.7Zm-109.4,26.75a5.82,5.82,0,0,1-3.81-3.35c-0.27-.77,1.85-3.35,3-3.41,1.45-.08,3,1.55,5.61,3.07C141.91,119.65,140.49,121.62,139.44,121.44Zm-4-28.12a11.37,11.37,0,0,1-11.72-11.59A11.74,11.74,0,1,1,135.39,93.32Zm1.36-40.09a9.7,9.7,0,0,1-10.06-10.07A10.15,10.15,0,0,1,136.84,33h0a10.34,10.34,0,0,1,10.44,10.44A10.15,10.15,0,0,1,136.75,53.23Zm27-16.12a7.38,7.38,0,0,1,7.6,7,7.59,7.59,0,0,1-7.23,7.47,7.21,7.21,0,0,1-7.26-7.29,7.43,7.43,0,0,1,6.89-7.21h0Zm5.54,44.36c0.24,1.44-1.7,3.25-3.39,6.07-2.12-2.57-4.36-4.11-4.29-5.54s2.2-3.95,3.65-4.11C166.5,77.74,169,80,169.26,81.47Zm-2,65.73c-6.47-.05-13.37-7-13.22-13.24a13.31,13.31,0,0,1,13.33-12.79A12.52,12.52,0,0,1,180,133.83c0,7.31-5.8,13.42-12.71,13.37h0Zm31.9-35a9.65,9.65,0,0,1-9.34-9.81A9.2,9.2,0,0,1,199,93.13a9.57,9.57,0,0,1,10,9.61A10,10,0,0,1,199.19,112.16ZM202,70a8.12,8.12,0,0,1-8.15-8.39,8.11,8.11,0,0,1,8-8.48,8.49,8.49,0,0,1,8.56,8c0.09,4.56-4,8.84-8.46,8.86h0Z" transform="translate(-7.58 0)"/><path class="cls-1" d="M189.19,177.56c-1.59,12.32-5.1,23.05-11.06,32.8-16.58,27.16-40.51,42.66-72.55,45.33-48.36,4-90.67-31.64-97.15-78.39A91.8,91.8,0,0,1,68.55,78.49c9.29-3.34,9.91-3,10.89,6.85,0.42,4.22.27,7.33-5,9.17C26.38,111.29,9,169.22,39.63,210c26.69,35.61,79.6,39.4,111.25,8.15,10.15-10,17.13-21.71,20.42-35.53,0.89-3.74,2.62-5.42,6.53-5.15,3.46,0.24,6.94.05,11.36,0.05h0Z" transform="translate(-7.58 0)"/><path class="cls-1" d="M84.74,175.07a14.47,14.47,0,1,1,28.94.11c-0.07,8.59-5.92,14.67-14.27,14.83S84.77,183.84,84.74,175.07Zm65.84,23.63a11.75,11.75,0,0,1-11.36,11.57A11.63,11.63,0,1,1,150.58,198.69ZM63.64,210.1c0.11-6.42,4.52-10.69,10.84-10.52,6.1,0.17,10.21,4.49,10.17,10.68A10.63,10.63,0,0,1,73.49,221.2C68,221,63.54,216,63.64,210.1ZM73,139.3c-6.4,0-10.41-4-10.29-10.31,0.11-5.61,4.8-10.44,10.09-10.4A10.73,10.73,0,0,1,83.49,129C83.6,135,79.14,139.32,73,139.3h0ZM57.51,173.23c-0.07,4.65-3.43,8-7.9,7.88-3.84-.11-7.56-4-7.61-7.93a7.75,7.75,0,0,1,8.12-7.67,7.35,7.35,0,0,1,7.39,7.72h0Z" transform="translate(-7.58 0)"/></svg>