<?xml version="1.0" encoding="utf-8"?>
<!-- Generator: Adobe Illustrator 22.1.0, SVG Export Plug-In . SVG Version: 6.00 Build 0)  -->
<svg version="1.1" id="Capa_1" xmlns="http://www.w3.org/2000/svg" xmlns:xlink="http://www.w3.org/1999/xlink" x="0px" y="0px"
	 viewBox="0 0 40.1 40.1" style="enable-background:new 0 0 40.1 40.1;" xml:space="preserve">
<style type="text/css">
	.st0{fill:#1488EA;}
</style>
<title>tooltip-icon</title>
<path class="st0" d="M19.9,12.1c1.9,0,3,1,3,2.7c0,3-5.4,3.9-5.4,7.6c0,1.1,0.8,2,1.9,2.1c0,0,0,0,0.1,0c2,0,1.8-1.5,2.5-2.6
	c1-1.5,5.6-3,5.6-7c0-4.4-3.9-6.2-7.9-6.2c-3.8,0-7.2,2.7-7.2,5.7c0,1,0.8,1.9,1.8,1.9c0.1,0,0.1,0,0.2,0
	C17.5,16.2,16,12.1,19.9,12.1z"/>
<path class="st0" d="M22.1,29c0-1.4-1.1-2.5-2.5-2.5s-2.5,1.1-2.5,2.5s1.1,2.5,2.5,2.5C21,31.5,22.1,30.4,22.1,29z"/>
<path class="st0" d="M40.1,20.1C40.1,9,31.1,0,20.1,0S0,9,0,20.1s9,20.1,20.1,20.1C31.1,40.1,40.1,31.1,40.1,20.1z M2,20.1
	C2,10.1,10.1,2,20.1,2s18.1,8.1,18.1,18.1S30,38.1,20.1,38.1C10.1,38.1,2,30,2,20.1z"/>
</svg>
