<?xml version="1.0" encoding="UTF-8"?>
<svg width="14px" height="14px" viewBox="0 0 14 14" version="1.1" xmlns="http://www.w3.org/2000/svg" xmlns:xlink="http://www.w3.org/1999/xlink">
    <!-- Generator: Sketch 42 (36781) - http://www.bohemiancoding.com/sketch -->
    <title>icon-search</title>
    <desc>Created with Sketch.</desc>
    <defs></defs>
    <g id="Page-1" stroke="none" stroke-width="1" fill="none" fill-rule="evenodd">
        <g id="icon-search" fill="#E74C3C">
            <path d="M5.67195116,9.63410288 C3.50117577,9.63410288 1.74153209,7.86796818 1.74153209,5.68918518 C1.74153209,3.51040218 3.50117577,1.7435172 5.67195116,1.7435172 C7.84272655,1.7435172 9.60237024,3.51040218 9.60237024,5.68918518 C9.60237024,7.86796818 7.84272655,9.63410288 5.67195116,9.63410288 M12.8906763,12.3598324 L9.25851463,8.69176423 C9.93576067,7.87847195 10.3439023,6.83184582 10.3439023,5.68918518 C10.3439023,3.09925442 8.25236323,1 5.67195116,1 C3.0915391,1 1,3.09925442 1,5.68918518 C1,8.27836566 3.0915391,10.3783704 5.67195116,10.3783704 C6.84405027,10.3783704 7.9129927,9.94171343 8.73301356,9.2259562 L12.3621852,12.8902731 C12.5079501,13.0365756 12.7449115,13.0365756 12.8906763,12.8902731 C13.0364412,12.7439705 13.0364412,12.506135 12.8906763,12.3598324" id="Loupe"></path>
        </g>
    </g>
</svg>