<?xml version="1.0" encoding="UTF-8" standalone="no"?>
<svg width="18px" height="18px" viewBox="0 0 18 18" version="1.1" xmlns="http://www.w3.org/2000/svg" xmlns:xlink="http://www.w3.org/1999/xlink">
    <!-- Generator: Sketch 40.3 (33839) - http://www.bohemiancoding.com/sketch -->
    <title>input-warning</title>
    <desc>Created with Sketch.</desc>
    <defs></defs>
    <g id="Page-1" stroke="none" stroke-width="1" fill="none" fill-rule="evenodd">
        <g id="input-warning" fill="#F9B13D">
            <path d="M8.306,3 L9.8,3 L9.638,11.118 L8.486,11.118 L8.306,3 Z M8.297,14.151 C8.09899901,13.952999 8,13.7130014 8,13.431 C8,13.1489986 8.09899901,12.909001 8.297,12.711 C8.49500099,12.512999 8.74699847,12.414 9.053,12.414 C9.35900153,12.414 9.61699895,12.512999 9.827,12.711 C10.037001,12.909001 10.142,13.1489986 10.142,13.431 C10.142,13.7130014 10.037001,13.952999 9.827,14.151 C9.61699895,14.349001 9.35900153,14.448 9.053,14.448 C8.74699847,14.448 8.49500099,14.349001 8.297,14.151 L8.297,14.151 Z" id="icon-warning"></path>
        </g>
    </g>
</svg>